<?xml version="1.0" encoding="UTF-8"?>
<svg id="Layer_1" data-name="Layer 1" xmlns="http://www.w3.org/2000/svg" viewBox="0 0 411.1 411.67">
  <defs>
    <style>
      .cls-1 {
        fill: #262324;
      }
    </style>
  </defs>
  <path class="cls-1" d="m.56,189.67c.85-11.58,2.66-23.11,5.44-34.41,7.32-29.77,21.37-57.96,41.43-81.21,12.09-14,25.13-26.96,40.46-37.45C123.81,12.02,167.28-1.01,210.8.06c42.31,1.05,83.71,15.41,117.61,40.72,32.59,24.34,58.3,58.58,71.6,97.11,15.28,44.27,14.6,93.32-1.02,137.4-.24.69-.49,1.38-.74,2.06-1.43,3.9-2.98,7.76-4.64,11.58-7.31,16.79-16.93,32.25-28.47,46.37-11.19,13.69-24.11,25.65-38.43,36.2-36.37,26.81-80.68,41.21-125.92,40.11-17.25-.42-35.63-2.48-52.16-7.44-8.99-2.71-17.51-6.97-26.27-10.49-17.79-7.14-33.18-18.15-47.89-30.11-25.09-20.41-44.15-45.58-57.13-75.14C3.73,257.45-1.9,223.3.56,189.67Zm222.98-29.27l-.86-.79h-44.34v130.38h49.66c0-2.22-.02-4.19,0-6.15.23-23.22.24-46.45.83-69.67.18-7.28,5.56-14.94,13.99-17.43,8.97-2.64,17.42.9,20.73,9.55,1.58,4.13,2.09,8.87,2.14,13.34.21,21.66.1,43.32.1,64.98,0,1.77,0,3.54,0,5.39h50.3v-5.65c0-21.49.25-42.99-.11-64.48-.17-10.49-.85-21.06-2.38-31.42-2.01-13.57-10.15-22.69-22.8-28.16-9.01-3.9-18.37-3.04-27.62-2.74-4.86.16-9.8,1.77-14.46,3.41-10.18,3.57-17.03,11.61-25.18,20.53v-21.07Zm-77.84-.67h-49.45v130.28h49.45v-130.28Zm-50.47-43.31c.08,2.38.56,4.78,1.5,7.13,6.47,16.16,29.3,20.32,41.23,7.86,10.42-10.87,8.37-28.93-5.45-35.74-11.67-5.74-28.45-2.19-34.83,9.75-1.8,3.37-2.58,7.19-2.45,10.99Z"/>
</svg>